<mxfile host="65bd71144e">
    <diagram id="FGPgKK3MwC_h9ihDaChO" name="ページ1">
        <mxGraphModel dx="965" dy="732" grid="1" gridSize="10" guides="1" tooltips="1" connect="1" arrows="1" fold="1" page="1" pageScale="1" pageWidth="827" pageHeight="1169" math="0" shadow="0">
            <root>
                <mxCell id="0"/>
                <mxCell id="1" parent="0"/>
                <mxCell id="2" value="AWS Cloud" style="points=[[0,0],[0.25,0],[0.5,0],[0.75,0],[1,0],[1,0.25],[1,0.5],[1,0.75],[1,1],[0.75,1],[0.5,1],[0.25,1],[0,1],[0,0.75],[0,0.5],[0,0.25]];outlineConnect=0;gradientColor=none;html=1;whiteSpace=wrap;fontSize=12;fontStyle=0;container=1;pointerEvents=0;collapsible=0;recursiveResize=0;shape=mxgraph.aws4.group;grIcon=mxgraph.aws4.group_aws_cloud_alt;strokeColor=#000000;fillColor=none;verticalAlign=top;align=left;spacingLeft=30;fontColor=#232F3E;dashed=0;" parent="1" vertex="1">
                    <mxGeometry x="250" y="140" width="550" height="220" as="geometry"/>
                </mxCell>
                <mxCell id="4" value="" style="sketch=0;points=[[0,0,0],[0.25,0,0],[0.5,0,0],[0.75,0,0],[1,0,0],[0,1,0],[0.25,1,0],[0.5,1,0],[0.75,1,0],[1,1,0],[0,0.25,0],[0,0.5,0],[0,0.75,0],[1,0.25,0],[1,0.5,0],[1,0.75,0]];outlineConnect=0;fontColor=#232F3E;gradientColor=#F78E04;gradientDirection=north;fillColor=#D05C17;strokeColor=#ffffff;dashed=0;verticalLabelPosition=bottom;verticalAlign=top;align=center;html=1;fontSize=12;fontStyle=0;aspect=fixed;shape=mxgraph.aws4.resourceIcon;resIcon=mxgraph.aws4.lambda;" parent="2" vertex="1">
                    <mxGeometry x="80" y="90" width="60" height="60" as="geometry"/>
                </mxCell>
                <mxCell id="5" value="" style="sketch=0;points=[[0,0,0],[0.25,0,0],[0.5,0,0],[0.75,0,0],[1,0,0],[0,1,0],[0.25,1,0],[0.5,1,0],[0.75,1,0],[1,1,0],[0,0.25,0],[0,0.5,0],[0,0.75,0],[1,0.25,0],[1,0.5,0],[1,0.75,0]];outlineConnect=0;fontColor=#232F3E;gradientColor=#F54749;gradientDirection=north;fillColor=#C7131F;strokeColor=#ffffff;dashed=0;verticalLabelPosition=bottom;verticalAlign=top;align=center;html=1;fontSize=12;fontStyle=0;aspect=fixed;shape=mxgraph.aws4.resourceIcon;resIcon=mxgraph.aws4.waf;" parent="2" vertex="1">
                    <mxGeometry x="380" y="90" width="60" height="60" as="geometry"/>
                </mxCell>
                <mxCell id="6" value="" style="sketch=0;outlineConnect=0;fontColor=#232F3E;gradientColor=none;fillColor=#BF0816;strokeColor=none;dashed=0;verticalLabelPosition=bottom;verticalAlign=top;align=center;html=1;fontSize=12;fontStyle=0;aspect=fixed;pointerEvents=1;shape=mxgraph.aws4.waf_rule;" parent="2" vertex="1">
                    <mxGeometry x="470" y="40" width="40" height="40" as="geometry"/>
                </mxCell>
                <mxCell id="14" value="RegionalLimit" style="text;html=1;align=center;verticalAlign=middle;resizable=0;points=[];autosize=1;strokeColor=none;fillColor=none;" parent="2" vertex="1">
                    <mxGeometry x="440" y="80" width="100" height="30" as="geometry"/>
                </mxCell>
                <mxCell id="21" value="" style="edgeStyle=orthogonalEdgeStyle;html=1;endArrow=none;elbow=vertical;startArrow=block;startFill=1;strokeColor=#545B64;rounded=0;strokeWidth=1;fontSize=8;startSize=5;endSize=5;opacity=50;jumpSize=4;exitX=1;exitY=0.5;exitDx=0;exitDy=0;" parent="2" source="9" edge="1">
                    <mxGeometry width="100" relative="1" as="geometry">
                        <mxPoint x="-20" y="140" as="sourcePoint"/>
                        <mxPoint x="80" y="140" as="targetPoint"/>
                        <Array as="points">
                            <mxPoint x="-60" y="210"/>
                            <mxPoint x="-60" y="140"/>
                        </Array>
                    </mxGeometry>
                </mxCell>
                <mxCell id="28" value="" style="shape=image;verticalLabelPosition=bottom;labelBackgroundColor=default;verticalAlign=top;aspect=fixed;imageAspect=0;image=data:image/jpeg,/9j/4AAQSkZJRgABAQAAAQABAAD/2wCEAAkGBxAPDw0NDg4TDQ8NEg4ODw8NDw8QDQ8QFRYWGBURFRYYHyggGBomHhUXIz0hJy0rLi8uFx8zODMsNygtLisBCgoKDg0OGhAQGjcmHyUtLSsrMC0tLS0tLS0tKy0rLS0vLSstKystKy0tLS0tLS0tKystKy0tLSsrLS0rLS0tLf/AABEIAOsA1gMBEQACEQEDEQH/xAAbAAADAAMBAQAAAAAAAAAAAAAAAQIEBQcDBv/EAEsQAAIBAwADCwULCQgDAAAAAAABAgMEEQUhMQYSEzJBUVJhcYGRBxSTodEVFiIzQlNydLGz0xcjJDVUgpTB0mJzkqKjsuHxNENj/8QAGgEBAQADAQEAAAAAAAAAAAAAAAECBAUDBv/EADcRAQABAgIFCgYCAgIDAAAAAAABAgMEERIUITFRBRMyQVJhcYGR8BUiM6Gx0ULBNOFDciNT8f/aAAwDAQACEQMRAD8A7iAAAAAAAAB53FeFOMqlSShCOuUptKK72WImZyhJmIjOXymkt3tGDcbenKu+lJ8HT7srL8EbdGDqnpTk1K8ZTHRjN89d7t72fElCiuTg6ab8Z5NinCW437WvVi7k7tjVV9P3k+Nd1f3KkoLwjg9Ys24/i8pvXJ31MKpeVZcatUl9KpN/azLRpjqY6dU9bwlJva89pUJVGtkmuxtDIzesNI148W4qx+jVqR+xmOhTPUy06uP3ZdDdPfU+Ld1P32qn+9MwmxbnqZxeuR/JuLDyh3UGlWhTuI8urgqnitXqPKrCUTu2PanF1xv2vt9AbqLa9+DTk4VcZdGriNTrceSS7O/Bp3LFVvfubdu9Tc3b27PF7AAAAAAAAAAAAAAAAAAAmc1FOUnhRTbb2JLaxG03OS7pNOzvKreWqMG+Cp8iXTa6T9WcHXs2Ytx39bj3r03J7upp2z2eT0qW1SMd/KlOMOlKElDxawYxVE7IllNMxGcwx2zJilsCWyKlsCWwE2FSwCM3FqUW4yi1KMotqUWtjTWxkHVNwm6p3cXb12vOaSypalw0F8rHJJcq68rlS5uIs6E6UbnSw97TjRq3vrzWbIAAAAAAAAAAAAAAAAA0e7S4dOwuGts1Gn3TklL1NnvhozuQ8MTOVqXJ2dZyX33k/wBB0+DV7UipzlKSo75ZUIxeHJLpNp6+ZdbOfi7s56EeboYS1GWnPk+1azqetPU09hpN1zHd9oOFtVp1qMd5Sr77MFqjCosbOZNPZyYZ08LdmuMp3w5mKtRROcbpfJtmy1ktgS2BLYVLATAlsg99G38ratRuYcajJTx0l8qPY1ld5jVTFVM0yypq0ZiqOp3ylUU4xnF5jNKUXzprKZxpjJ2YWAAAAAAAAAAAAAAAAB8z5Qn+gv8AvKX2mzhPqNbF/TcwbOo5bpnk90hCpaKhn85bualHlcZScoy7NbXcczF0TFefF08JXE0aPB9Sarac98p2kYylQtYtOVPfVamPktrEY9uMvw5zfwdExE1NDGVxMxS+EbN1pJbAlsKTAlgS2QS2BLYV3bctLNhYN7fNrb7uJyLv1KvGXWs/Tp8IbQ83oAAAAAAAAAAAAAAAA+Z8of8A4L/vKX2s2cJ9RrYv6blzZ1HLelrdVKM1UpTlTnHZKDw+zrXUY1UxVGUsqappnOG3q7s7+Ud5w+95HKNOmpvvxq7sHjGGtxOeT2nE3JjLNoJzbblJuTk225NuTb2tt7We7webYEthSYEtgS2QJsCWwqWwO7blP1fo/wCrW33cTkXvqVeMutZ+nT4Q2p5vQAAAAAAAAAAAAAAAB85u9oTqWTjTpyqy4Sm97ThKcsZevC1mxhZiLmctfFRM29jm70Rdfslx/D1vYdLnKO1HrDm83X2Z9JS9D3X7Hcfw9b+knOUdqPWDm6+zPpKXoe7/AGO4/h639I5yjtR6wvN19mfSUvQ93+x3H8NW/pHOUdqPWDm6+zPpJPQ13+x3H8NW/pHOUdqPWDm6+zPpKJ6Iukm3aXCSTbbt6ySS2tve6hzlHGPU0K+E+ksBszYk2QS2BLYVLYEtgd43Kfq/R/1a2+7ici99Srxl1rP06fCG1PN6AAAAAAAAAAAmc1FOUmopa228JLrY3jTXW6yxpvDuFN//ACjKovGKa9Z704a5PU8KsTbjrYr3c2XSqeikZapcY63bL39WXSqeikNUuGt2y9/dj0qnopDVLhrdse/ux6VT0Uhqlw1u2Xv8selU9FIarcNatj3+2PSqeikNVuGtWy9/1j0qnopDVbhrVsvf/YdKp6KQ1W4a1beGkN3VjOjWpxlU306dSEc0pYy4tItOGuRMSlWJtzEw5WdFzktgS2FS2BLYEtgd53KPGjtHvmtbb7uJx78xFdUzxl1rG23T4QzfPYdfgcz4nY7/AEbPM1Dz2HX4D4nY7/Q5mo1eQ52u5ljlLDz1/aTmantCopbGn2G3bu0XIzonN5zTMb1HogAAADT7otP07KCcvh1Z54Oknhv+03yR6z2s2ZuT3PG9ei3He5npbTFe6lvq1RyWcxpx1Uo9kf5vL6zp27VNEfLDl3LtVyfmlr2ejBLYEtgS2BLZFS2BLYCbCpYEtkEtgJsKlsCWwJbAkg7xuX/Vtj9Vt/u4nFxf8/N18P0KfCEnxrqAAAIzaeU8PqLRXVRVpUzlJMROyWytLjfrXqktvX1n0eCxkX6cp6Ub/wBtO7b0J7mQbzyAGNpG8jb0qlepxacXJ87fJFdbeF3mVFM1VRTDGuqKaZqlx7SV9O4qzr1XmU3nqiuSK6kdmiiKI0Ycauua6tKWKzJilsCWwJbAlsipbATYEsKlgJgS2QS2FS2BLYEtgSyAA7xuX/Vtj9Vt/u4nFxf8/N18P0KfCEnxrqFkgRFLJFVRq7ySkuTb1rlPWxemzciuOr8dbGunSjJuk861yn18TExnDnbjKPi/KVetU6Fsn8Y5VZ9kdUU+9t/um7g6Ns1NLG17Ipc/Z0HPJsCWwJbAlsipbAlsCWFSwE2BLZBLYVLYEtgS2BLIAAA7zuaWNHWKepq1t89X5uJxcXP1J8XXw8fLT4Q8z4x1SyQLJFTkgWTFW30fUzTX9nMfYfUcmXdPDxHDZ+vs0b9OVbJOg8XLd3tzv76pHkowp0l4b9/7/UdTC05W473KxVWdzwfONmy10tgS2BLZFS2BLYEthSYEtgS2QS2BLYUmwJbAlsgQABk6NspXNajbQ41ecaaxyJ7ZdiWX3Eqq0YmZZU06UxTHW77XSp0t5HUklTiurGMeB81yhd0LFXfs9f8ATuWac6oazJ8s3yyQLJFLJAiKz9Ez1zj2P2/yO1yNc+aujwn9/wBNbExsiWyO+03F9OVt/dXU9ua1XHYpNL1JHZtRlREdzjXZzrme9gNno80tgS2RUtgS2AmwqWBLATZBLYEthUtgS2BLYCIAAS5NudSS2t8wHWPJ3uTlarzy5jva9SO9p03to03tb5pv1LVytHPxF7S+Wnc6GHs6PzVb30l9X30sLZH1vnPkOUcVF25o07o+8uvZo0Yzli5Oc9iyRU5IpECMVZWjZYqrrTXqz/I6HJVejiYjjEx/f9PHERnQ3J9W57hdae+lKXScn4vJ3I2Q4cznLzbKiWyKlsCWwJbCpYCYGdo3Ql1da7e3nUj08KNP/HLCfieddyijpSzot119GG8p+Tq/ksuVCHVKrUz/AJYM8dbt9721S53e/I35N775y29LW/DGt2+/35rqlzu9+RPybX3zlt6Wt+GTW7ff78zVLnd78i/Jrf8Azlt6Wt+GNbt9/vzNUud3vyJ+TS/+ctvS1vwxrdvv9+Zqtzu9+Rfkzv8A5y29LW/DGt2+/wB+Zqtzu9f9F+TO/wDnLb0tb8Ma3b7/AH5mq3O71/0yLXyX3Lf565o01z0lUqvwaiScXT1QyjCVdc+/s+x3P7jbSxaqpOtWj/7q+G4fQWyPbt6zUvYmqqNs5Q2bWHponZtls7u8zmMNnLLn7D5zG8o6UTbtbuuf1+3RtWcttTBycZslkgRFLJM1IgRFe1m/zlPtXrNnA1ZYmjxYXY+SW+Ps3LcJqx3spR6La8GdyJ2OHMZTk82wJbAlsCWwJYUJNtJJttpJJNtt7ElysDpG5TcJCCjXvoqpUeHGg8OlT+nyTl1bO3ac+9ipnZR6t+zhojbX6PsqlzCHwVrxqSjsXUca/j7Vqct89zoUWqpeDv3yRXezQnlarqp+715iOI8+l0V6yfFbnZheYjiPPpdFesfFbnZg5iOI8+l0V6x8VudmDmI4jz+XRXrHxa52YOYjiXn8uivWT4tc7MGrxxHuhLor1j4vc7MLq8cUy0hLkSXiYVcrXp3RELGHpY1WtKXGbf2eBoXcRcu9OrP8ej1popp3Q88ngzLJFIgRFIxUskCyRXpafGU/pR+02cHtxFHjDC70J8H0J9q5TiWnKW8urqGze1q2OzfNr1YOzbnOiJ7nGuRlXMd7AbM2CWwJbATCpYH3/k00ApZ0hVjnDlC3T2ZWqVX7Yrsl1Gji7v8ACPNu4W1/OfJ9veXHyI97/kfMcoY2YnmqJ8Z/r9utat/ylhHGbIAAAAAWSKWSBZIqckCyYqRFLJFIgRFLJAskUskVkaOWasOrL8Ezd5Mp0sVR5z9peV+crct+fZOW5N5QLbg7+q+StGnVXhvX64M6mFqztx3OXiqcrk975ts2GulsCWFSwBRbajFZlJpRXO3qSIO72dtG2t6dGGyjTjBdbSxl9r+04GKv6FFVz33O3aojZTDBPkpnPbLoggAABZARipZIpZIFkilkgRFIikQIilkxUskUskE5IrY6FhmU5dFY73/0dvkO3ndqr4Rl6/8AxqYur5YhuD6ZoPg/KlZfBtrlLiuVGf73wo93wZeJu4OrbNLSxlOyKnPGzfaCWwpMCWwMvQqzdWafLcWy/wBSJhX0J8JZUdKPGPy7jf8AE70fLcpT/wCCfGHes9JrT51uAAAWSBEUskUskCyRU5IpECMVBFLJBOSKWSKWSBZIpEVvtFUt7ST5Z/Cffs9WD6/kmxzeGiZ31bf19snMxNelX4bGYdNrsDTujVdW1a3erhI/Bk/kzWuMu5pGduvQqiphco06ZpcRr0pU5Tpzi4zg3CUXtUk8NHYiYmM4ceYmJyl5MolgS2QZmhH+l2X1i2+8iY3OhPhP4Z0dKPGPy7jf8TvR8tyn9Dzh3rPSa4+dbYARFLJBOTFSyRSyQIilkmakQIilkilkgWTFSyRSIERXraUOEnGHI9b6o8ps4TDziL1Nv18Ov3xYXa9CmZfSpH3MRlshxwUAHxu7jck7nN1bJecJJThqSrJbGn01s612I28Pf0Plq3NXEWNL5qd/5cwqwlCUoTi4Si8SjNOMovmaetM6ETnthzp2bHm2BLYGXoN/pdl9YtvvImNzoT4T+GdHTjxj8u53/E70fLcp/Q84d6z0mtyfONsiKWSKWSBZIpZIpECIpGKlkgWSKWSKnJAskUiKRBUIttJLLexLaZUUVV1RTTGcykzERnLfaOs+Cjl8eW3q6j6/k3A6tRnV0p393c5l+9zk7NzLOk8AAAAGu0roO2u1+kUI1GlhT1xqJcynHDS7zOi5VR0ZYV26a+lDQVvJzZSeVOvTXNGpBr/NFs94xdfc8JwlHe8/ya2fz1z/AI6P4Zdcr4R7801OjjP2/T0tPJ3aUqlKtGtcOVKdOrFSnR3rlCSkk8Q2ajGcVXMTGULGEoiYnOffk+n0hxO9HF5U+h5w6FjpNZk+cbhZIqckCyTNSMVOCy4rnaRlbpiqummeuYj7pM5RMtn7mQ55eK9h9D8Gsdqft+mnrNXCB7mQ6UvGPsJ8Gsdqft+l1qvhBe5cOlLxj7B8Fsdqft+jWq+ED3Lh0peMfYT4LY7U+sfo1qvhBe5UOlLxj7B8Esdqr1j9GtV8IHuVT6UvGPsJ8Esdqr1j9LrdfCC9yafSn4x9g+B2O1V6x+jW6+ED3Ip9KfjH2E+B2O1V6x+jW6+Ee/Me5FPpT8Y+wfAsP2qvWP0a3Xwj35nHRNPnk+1r+SMqeRMPG+Znzj+ognF19zKoW8IcSKXXyvvOhYwtmxGVunL8+u94V3Kq+lL1NhgAAAAAAAAAADF0jxO9HO5U+h5w9rHTavJ803SyRSyQIikRSTxrW1CKpic4Mnr51U6b8TY17EduWHNUcC87qdN+JNexHbleao4F53U6b8Sa/ie3K8zRwLzyp05eJNfxPbk5mjgXnlT5yXiTX8T25XmaOBeeVPnJeJNfxP8A7JOZt8G+tJN06betuMW3zvB9fg6pqw9FVU7Zpj8OZdiIrmI4vU2GAAAAAAAAAAAAAAAADF0j8X3o5vKv+P5w9rHTarJ803k5IpECMVBFLJBOSKWSKIpt4Sy3sS1timmap0aYzkmYjbL2lY1Us8G+5pvw2m3VydiojOaJ+34ic3nF+3nlmxmaMvYiD6Wy+KpfQj9h9zgf8a3/ANY/DkXfqVeMvY2nmAAAAAAAAAAAAAAAAxdJfF96Obyr/jz4w98P02oPmG8WSZqRAiKWSKWSBZMVLJFbjQ9FKG/5Z518yTxj1H1HI2Hpps8711Z+kTk5+KrmatHg2B2Wq1GmqCTjUWrfapdb5GfNcuYemmabtPXsn+vfg38JXMxNMtWcFuPpbP4ql9CH2I+5wP8AjW/+sfhyLvTq8ZextPMAAAAAAAAAAAAAAAB5XNPfwlHla1dvIa+Ks89Zqojr3eO+GdurRqiWiZ8bOze6ZGKlkgWSKWSKnJAskUiK2+h7lb3gm8NNuPWnrPpeRcXTNvmKp2xu74nb6tDFW5z04bM7rTaXTFypNQi8qOW2tmeY+W5ZxdN2qLVE5xTv8f8ATo4W3NMaU9bBpU3OUYLbJ4/5OTZtVXa4t0752e/De2aqopiZl9PGOEkti1I+9ppimIiOpxpnOczMkAAAAAAAAAAAAAAAAAGvv7LOZwWv5UefrXWcTlHk6a5m7ajb1xx747/z479qxey+Wpq2fOy3U5IpZIpZIpZMQiKQAB6OvNrDnJrmcng9pxF6Y0ZrnLxljFFMTnkiEW2kllvYltPOiiquqKaYzmVmYiM5bzR1jwa30tc34RXMfWcm8navGnX0p+0cP37z51+/p7I3M46rWAAAAAAAAAAAAAAAAAAAAY9xZwqa2sPpLU/+TSxOAs4jbVGU8Y3/AO/N6271VG5rq2i5ritTXgziXuRr1O23OlHpP6+7bpxVM79jDq0ZR40Wutp48TmXbF2106Zjy2eu5sU101bpeWTwzZggQATMe1O1qS4sG+vGF4s2rWDxFzoUT+PvOUMKrtFO+WbQ0RJ8eSiuaOt+PIdSxyHcnbdqy8Ns/r8tavFxHRhsre2hTXwVjne2T7zu4fCWcPGVuPPr9WpXdqr3y9jZeYAAAAAAAAAAAAAAAAAAAAAAAAA850IS2wi+2KZ4V4azX06InxiGcXKo3S83Y0vm0eM8nYWf+OGXP3OIVlS+bj3rJY5Pwsf8cehz1zi9YUox4sVHsSRsUWbdvoUxHhGTCa6p3ys9GIAAAAAAAAAAAAAAAAAAAAAAAAAAAAAAAAAAAAAAAAAAAAAAAAAAAAAAAAAAAAyAt8BO/AXCAHCALhADhAHwgBwgFb8B74B5AAAAAAAAAAAAAAAAAAABMCGBLAhgJsBALIBkBgNANAWgKQFoBgAAAAAAAAf/2Q==;fontSize=1;" parent="2" vertex="1">
                    <mxGeometry x="134" y="44.1" width="40" height="43.93" as="geometry"/>
                </mxCell>
                <mxCell id="29" value="" style="sketch=0;outlineConnect=0;fontColor=#232F3E;gradientColor=none;fillColor=#BF0816;strokeColor=none;dashed=0;verticalLabelPosition=bottom;verticalAlign=top;align=center;html=1;fontSize=12;fontStyle=0;aspect=fixed;pointerEvents=1;shape=mxgraph.aws4.role;" parent="2" vertex="1">
                    <mxGeometry x="80" y="54.79" width="40" height="22.56" as="geometry"/>
                </mxCell>
                <mxCell id="31" value="" style="sketch=0;points=[[0,0,0],[0.25,0,0],[0.5,0,0],[0.75,0,0],[1,0,0],[0,1,0],[0.25,1,0],[0.5,1,0],[0.75,1,0],[1,1,0],[0,0.25,0],[0,0.5,0],[0,0.75,0],[1,0.25,0],[1,0.5,0],[1,0.75,0]];points=[[0,0,0],[0.25,0,0],[0.5,0,0],[0.75,0,0],[1,0,0],[0,1,0],[0.25,1,0],[0.5,1,0],[0.75,1,0],[1,1,0],[0,0.25,0],[0,0.5,0],[0,0.75,0],[1,0.25,0],[1,0.5,0],[1,0.75,0]];outlineConnect=0;fontColor=#232F3E;gradientColor=#F34482;gradientDirection=north;fillColor=#BC1356;strokeColor=#ffffff;dashed=0;verticalLabelPosition=bottom;verticalAlign=top;align=center;html=1;fontSize=12;fontStyle=0;aspect=fixed;shape=mxgraph.aws4.resourceIcon;resIcon=mxgraph.aws4.cloudformation;" parent="2" vertex="1">
                    <mxGeometry x="30" y="48.03" width="40" height="40" as="geometry"/>
                </mxCell>
                <mxCell id="32" value="get_web_acl&lt;br&gt;update_web_acl&amp;nbsp; &amp;nbsp;" style="text;html=1;align=center;verticalAlign=middle;resizable=0;points=[];autosize=1;strokeColor=none;fillColor=none;" parent="2" vertex="1">
                    <mxGeometry x="215" y="59.99999999999999" width="120" height="40" as="geometry"/>
                </mxCell>
                <mxCell id="39" value="" style="edgeStyle=orthogonalEdgeStyle;html=1;endArrow=block;elbow=vertical;startArrow=none;endFill=1;strokeColor=#545B64;rounded=0;opacity=50;entryX=0;entryY=0.25;entryDx=0;entryDy=0;entryPerimeter=0;" parent="2" target="5" edge="1">
                    <mxGeometry width="100" relative="1" as="geometry">
                        <mxPoint x="140" y="107.35" as="sourcePoint"/>
                        <mxPoint x="240" y="107.35" as="targetPoint"/>
                        <Array as="points">
                            <mxPoint x="140" y="105"/>
                        </Array>
                    </mxGeometry>
                </mxCell>
                <mxCell id="43" value="" style="edgeStyle=none;orthogonalLoop=1;jettySize=auto;html=1;entryX=1;entryY=0.75;entryDx=0;entryDy=0;entryPerimeter=0;exitX=0;exitY=0.75;exitDx=0;exitDy=0;exitPerimeter=0;opacity=30;" edge="1" parent="2" source="5" target="4">
                    <mxGeometry width="80" relative="1" as="geometry">
                        <mxPoint x="270" y="150" as="sourcePoint"/>
                        <mxPoint x="350" y="150" as="targetPoint"/>
                        <Array as="points"/>
                    </mxGeometry>
                </mxCell>
                <mxCell id="7" value="" style="shape=image;verticalLabelPosition=bottom;labelBackgroundColor=default;verticalAlign=top;aspect=fixed;imageAspect=0;image=data:image/png,iVBORw0KGgoAAAANSUhEUgAAAe0AAAHXCAMAAACmi/ICAAAABGdBTUEAAYagMeiWXwAAArJQTFRFAgMDBAYHBggICQoKEhYXGyEjIiYoIyosJC0wLDY4Njg5NEJENURIO0lNPk5RRE1QPEZJMz1AKjI0FhoeDRISKzY4RFVaW3V8dpGbhqOniqm0kbK8msTHq9Lcq9rjtePqvOzzw+36x/P8wun1o8rYmbrEiqiufZqibYOITWNpGR4hTVZZcYSMcoaQgZykka27qcvZu+LtvOTzr+Dop9bjo9HcnMnTnsvZtdromb3Ie5ObZ3yEbouUocjSs9njrdPjnsTQoMXTp83ge5iebIeMTV9hZHR6iqOrqcvTlcHLpMXVkqy0epCUVWhsPUFDeomMk7XBm8HMZXl+e5Who73HutrkttTYl7a6aHd8Xmxw0PT9l8rSlsTSxOTsstTclLvJU11hmLC2g52pocLNTlhbVW53l7jNgpidHSUpw/L9wNzlXnF0kKa0iJ2pS1xhRVBTdYuTlbnEVmFkqNPYDA4Pi52jpcTJmbO6UVpdsc3Wja65GxsbkKmucoGFcX2CjbbBYnF0gpWajLK7gZKVVWRpHiwxdYyZlrTHorzRmbXDhq24S1JVkaSreoySQENFbIGFEhMTiaWyhaqyh5mdi7C2haWxWl9eHR8fhKKrBwMJAwsFAhsFanl+AXQGAOIEANIIANoEAPMEALsFAicIAiQEASwDATADAVUFANEEAMwEAegIAVoFAdsIAcwIAcMFREpMXGlsanyBOz8+AjgHAawFAYIGAjsFAhIFAUgIAYsFAOwEAZsFAUIFAXsFAPwEAZUGAWIFfp2oYG5xAaQGAcIIfqCmAUwFAbUGAWwFAmEHc4mMLC4wBRUKdpKTeY2ZSE5RQUZJaHN2PkhHWWVpcHt+WWFlWF5iOTo8YmpuPD5AX2ZqNTY4UFZaMTExSUxNLi4uUFRVIyMjLi8vRkhHNjc3////NwnDMwAAAAFiS0dE5VhlC78AAAAJcEhZcwAADsMAAA7DAcdvqGQAAAAHdElNRQfnCgsAFAUE4D3gAAAvWUlEQVR42u2dj2MTVb7ok6ZQCbJFQLdNKLqStDwppbjyI/UVksWlDWA3QVlgb6UI3NW3rtoACqZ6qb1e7gOuIXWXd0uLaYqICT9SWJEuBVHR57Kuu+3Kc3P72NDtI3/I+575lUnbZM6Z/DhJej6lv2jmzMz3M9/zY+bMRKNhMBgMBoPBYDAYDAaDwWAwGAxGjqDVFumKp00vuW+GfubM+++/f9asWT9QSakA7u9Ky5OuZxLgr7NmzZ49+/6ZMx94YM59JdPmztMVabW0g55VinTzpt334P0P/bCs3GCcX7Hg4UceeeRH8C+eR39UUCxcCLv4yCMPV5jMxsqqRf/tBzPnTEfuacvIHNp5j81ZXL2kZmntsoWPL/vxw08sX7Bg+fInnlixYuXKFQUP2sWVy59Y8ATs8oIfP/zI44+vstTUVT85s6RYR9tMmtE9pv/hfzfUr16wYMGqNWueMK1cudJqql9hWrHCZKs3mUw2+A19B+oFTKb438Wo1SdgpUCi1ystr/R3pXKVQPtZX2+zoX1eYbWh7f3JE2tWr6l4eLVx7VM/va+4MGr4eTPXNZgbQfTyFcuXr7SLe7/eBntea6qvXW+1gm4bBMIG0bCOtz3euikB4y0o/T2RRZsAbjmJfjeN/339erTL69H/rbetXw8VGips+XL4rIAsaNyw8emS/M5yXdPPHBWrl5uWQy7XI6fra60QF1O9rR5+r3daURhM8uBMiH4iS0p/V8rZRMsr5W6i9Yw/SsSfxSN1hbCrVmFvbbUm7u9wEKyHyKyHWn55RW3lppI8bcuLf+qoXWOSR0IejfFRSvT3ZNFM9jtuOen6O+n2TPZ3dGTU1j7zQN6l+LzFz26eX29C7XG80EKxner2JPo79GQaf94wJ59a8Qe3LKuttUK9tdKuZJPZ5rFa+S4L11o0rl62tZi2RDx0237x+Ip/MjU3m+z25dYkNrn9S/R3a9y3CdGxkkY3D2xbeduoZbeuWPPcZj1tk8oUNzy3vb7lCftKk3V9rc2ZJHf5/Uto2xr7OiE6sGSqtq0CmbaNux7xRU74Z125srl5xfI1v9iR2122uc//AtLR6XSakA+LDbacI7bX0t7HfZuU+sn+mGyBbDLeZrowOS0myJL1K5vtKyyrH306d33P3fmL2pZmq91kgrFVvdMGW71CDA5tO/kCOoKcTjiobVYIo2n1Lx7KzR568caFFfZ/Wg+dM6vVbp0/v94Kzu3iTtCOYr7QbF3hRLW5zbbL6rRZm+2PP7c79/Jb988LK5xWO2wqD6rPrbDd1hUg3WZ12pu5kxPwFxsyD7W0U6zl+a9CtWhLgBgN8XdxPRNfF/uKU06yv6PvuwQm1tx465FeLXzn9hv1MmHLndDSzbfygWheAf9Wrljp5NsqocFyOn9psz/c+CBtu+O4f9Vq6JLV250S9Sa0FyjB0Q7CbxYnKLKZrPYWO9Bib25utjcL+wR720x2laFZIFN/T2s58HdnLHthv+2ozoNvsP/oRzsKDbzCaRHi4RS/O00Wq7P+uRem0RYs48UNm20WJ5/NomynxSL9ArthscDhDcIhLit/smbV4yITrgxi8qhAor//D4FUr1UqlYO/nke53eP3etmyJ36ykjsM7Eg5HPaQFPPNll31UsTEH+DosFs2/+qlXGm+deueq7Cjzauvd8rgD06LE7XicARDNbX8x488DH6W1Zp//XJd9bqnX3l11swZM+4rmf7itGmPAXMLE7Rr06a9WFJy34wHZv7goVf++cnWmgajbc3CRx9duHDB6go0xm6B/Abhu8xcRSdPG6jg7a7167c33k/bM8ecZ1c77XZh+yTfUAGZLVB/o1quxb581Y8WPtxorvnhKw/MmVaMpnDQ3mrKaIt08+a+OGPWntbKXduXPb5qDYy4UBu3QrAdY6+lxWRqblnvXPbUPNpbrSla95zNBRvKbWN9vUWW25z5luafrHp8laN19wPT9uVe3zIX0BWXzH7ptfWrHl+DuuDOcUDdaIPKvhmSfu/rtHtr03fVOptNdvOuFXYQbZG11dxPporNjeVPzylmnpXQTZu9af/mVbXOeqszriK3Wqxm9N0C9ef2OqqBPPAGqqpbnDYzjL2g8panttNZscr9wzn0q5+8QVs8q3VvxV55FJ0t0LV12ubPX9Fsse1y1u9to7d1VU9INQ8ceWaLDbIblDe3QCdzuenNPfQ2LW/RzXnLvHc5dMNtFvtKl3W+0+yMs79mFqUNK3693tIi2bZYbDazw2p1wMFora+wPFky1Xtiatk3q2rXXpBtt9dDy2hBQ9lYC9lSsZXKRs35uRllsojZAochjLTsZltj45u78+TybG6iLfkX516rqcVi4XtCFrN07tDkqH+eQuM9e/V8u/wMChLustsPmioayx9gvbJUmbdny/YKvtWOy22oOk2bs94X2rPa4Two64Nb6l0Oq33+/IrGmgdZFZ4O5i3ev2B5C2q2HajaFONsb2mxbZ6b3U1pX406Zg5bLLdhu1zmiu1vz2Cu08W83eYfmywOp00+sm2xQu/8Vy9mczsWrYLjzeKqdzgtAtCGm3c9t2EWq8PTSXF77Rqby8LV5QIwtu1wWlfNyd5G/OuaX9rNFrPTaLdLW9HiWND4Dhtcp5t/O7SqHjLLJcXZ5XTYWlqan8varLXWhzukY60FjbMdzpaDtlU5dVmuYCia/fpqV0sLtN7zkWuuHgV+uTBL2b2uwmKWjjX4yYx646u25+AUi8KguHWZydHicDpcLqco29zifC4ryfXOZlgxv0oAGmyXvcPy3GsssTOGtrRxuwsqULPTYZZwmH+VhZ75Q6tdFndstf9ubmk5aFq2jSV2JpnbsKrD4nBBp1iMuwsa8MaMd5MeXA2ViKtDOsT+5+EWV/3q3LjSXsDoFi00O6wOx+FYbre01L+e4Qktjz3scDmPWFqklbrMlsZGVotnHO3R52yQ3GYXB2pBW1oc2/8jo+vUNTphqAX9Q5eIw7z9XTbuygYzdtlcTjHwZgi8/aCj4slMrvHNXWa0vphsl33Bk6zJzg4vWkxui2gbkrzD7mh5wpO59R1z/lK0bIFuOdQsLdtfYrKzxdz9tS0uiLvRskXKtorHMrW2GY2Of5dqcIfD6DA7KvbQDsFUwltT2+KwOMxGo5jjro7NGeqpeSugsXAIGKHtPuiseIh2AKYW814wuVxGFwRfxLKlITOr6rQcdBnFtWxxdaxoWf8O7d2fangrTTDSdlskDw7j6zMzsaKHbC0u4xZxJeYtB1vWbGJXN7PN3A27zG6r2yV5aHnvjQyMiYor4DjaItnugI7aEiY7+0zbD+Mis5TbbkuL8zfpX8vzHRbXYWOHuBaX0dmQK7cmTS3mvAHtqGTb4nYYd72a7nW8usvlch8+fFBcy0Hrs2yiIR0eWmXsiNWxhw875s9Pc12+z2mWktq1FH3fXkJ7r6csm7Z3HOywuw/DGNjlgCbcaFmS3hWss3D9AlSBHHG43A739rTXHgxcimpqD7o6jIeXGl0doKSjw7z/vnSW/1gjmDbCPyN/VuW9Be/S3uWpzNxdLmOH2W2EtDNy1Neks/gX5hsFHAaXo8O4K90tBYOI+5chz2ZONnSc3VsaH0hf4TMqDhol3I4O92ba95ZOdaprIbMh99xbOkA5jMPSd6m7aL+xw+gQkxtSe3N76oVqpzIpR2/es7uMbrDs6PgtfHV1dNSm7Rz2A3s7kGu3G74YoIdm+XUq9TjtSOcQqTipXdphfs/hMHQYjUtRdd6YpuTWvu5CBfK24ZvrDdVzmWmHNwdRG8nWWuMRlwEqXfcGoxtGZOsXp8f2zMZYPQ7VRsfet9RtIu245iyqojn39fkdDvdS0cth4960JHfR61uOGN1iqUsdrtfVTEOjHdFcRt0zh3ZUdBxxSLbd7r2702G76eeVHQ4DFMfV5EvdjU8z1+mHPKbzKp0d7lgWGo1vpCG5tT83uKFvJth2G3dtIO6i0Y5kfkBsZuZ24xGHW8KwfUfqtme8scFgNEildjQeYLIzBGFcdeVb3B2iF8hD989TnyK4YamDK0rAWekldF1EO4h5BFloZ75hPBKzvfR4RcqzWOZuP9zpNsAHqiugKjcR9gVoxy/PIIqt7jWLlNvvuQ1G45ZUbZdtgQ6aEepykA22HUeIWm2W2KQQyZndKLXavwVD721P8aadojUGA5fV8Gk0HHHv+l9EshnkEMRX1+BCbezxjiPupYaO935rbk3N9mwbSmr4QOX9tsNx+D+Z7ExDEOFXnAZDJ2TiETd8Nb63IcVB2LNG0bZhaafBYF7EZGccgp713C0ONycImllDh6EytQuf+7Z3GlB7DR/oEPqtGb802jHLYwh0b7JAAysI6jAYN6R0K8GrZgNXFnTLDZ3QV3sBu6agHbH8BlvQjMOdS5Eg+Ow0drmNKV0J29/h5m0boCJ3Gw7jD79oxyvPwQ2zbufSpVCPo2yElDxuIKh8J7Cv8TgqhsdtcGzA7uHTjlbegxvoVw67herX0OlwH3ekcCfBA/uPCKY7DTuho9+KuxG0Y1UAYEb6xaXgBvx0Qn7vNLiPv67+7OlaKbENlejcytE0yiY8Ik7wrz+BHawTpGvINTBD/ZpgR8Cpepp/kXlprBg4gvZjVuQ4+9LdI9CNufPdhNCWlTKYkvYcdr/XWSl5cp9Ua3vaYVluQ0fgZdzjDYP3fb1+n9/fd+oDvH3vPv0hcAYL9LIe2rJSBy/Ycw4fh1q3slOg63W1tl9Z6pZKqYTcbk+fbO1HvkAwEAj4/Kc1Wqw8RLY543icpu0qZTBntMx7E+rdTslT52G1M0RrujrLxUIMnZVb8Hr3WLui+eisH2QHfcHTmE34achZEtt53mprsU+yVDtQMyt52j9Dneyi/YbODVIpXZX78W7qxNoTzTkfyO4N+IKYNTnYxlddELmtxazLXzV2GWK5fdy4Tp3tYuOR41Jud3b++jdYa8fckXPnA8HghZD/FK4WPq+xs3vq2L7PzFW9ou3KN9XZ1juOGxqk1t+wAa+3h7kj56AiD55H7TbmAnwvberkNhdInIDPQ6PtLqkONqh8k5ljlYbKWOvfuQXrnahwd4azHQj6gx9gLkLQZheEbR6ckL9m6OqSsrKyy6huSsNGQ2WXVJMf79qPNW7H3Q1mGwuckLcbjh+XcrLy+FJVd/IUNRiOx46Zrk6smcXYu8FsY4Ejqv/w8a6Y7S73RTW2izd0dXVVdokYynFWjT0PjdnGAyPm9z3bFaOyy1CnxnbJ0njb1elMbcl2iNlOCk5a7u+qrJTZVjWjoRTldrlk24jzRFP8KaYstzFRDrquwVAZ89R1vHKfCtvQ+MtsHzfjTE3H3wdmGzdSymzc0FUjr8ynq7D9biU0/rFjxoLRJSfYB2YbN1LKXDLEVL98vKvydyps1y3dKTtg3tuP8Q41yTZa/kt3z8eXQwHuskjgkyunB3Aui0xV2xi6dxhl/auGlw2vkMveh44SWWvwJsYATHnTT4Dp318NnT8PeR3kbJ8f9IWunftQUTiznZDZDllaNjQYVJwpf6xT3kfrMrymfEIOY9MHrn/ae6MvEED1OJLNCff39Z3/7PpA8mthzHZC7rPIbJc3dKoYgpV0Hu+qkg3AMIpQ2mxt95lrfYPnQ0GkmpcNDTf/2+CNU78fYLZV2Z67S5aX5Q3HXyO/F1zfeXxnTdfOcgE3xnBbafw18LmvD+VyMBTicjrIm+7lfg4M9l1LdvVzytpWVjfv2RpRU3lX+c4ujGp4PIsNX3R11Ui2jTdTzu2eL2/wNTd89fO2A0HJeehU4Ib/XOL0ZrYTotsPkkXbL+/sKvcS226Pt+3AeEBT8m3+4Ksb/mCvWIXzzXYgKPiHsZg/GBo8e20g0bRSZjtxnbqzslxuW8WA+1+gDajqko4Z8+zUZJ84fbkvxHfEewMCQb6rFuQqc2jAg6HA4OVEmpjtxIE/ZJCq8pqXG76oJL8K1tr1RRcMuMtrEOVVzyq/3XOSDe4+0X3NJ8hFli8EUcvth/o8hPRfgN5aiO+1DYauTJ7dzHZijhl31giUl+/cWYk1EyFO3UZku/x/S7aVT6Ul3eKvL/j4zBb+9fX1DQJ9N/r4yadQkaPuW9B34/rkJTDbiVk3zjbxM0+L3q4E27A0X0jVLuX3lEu2xT1/8AUuBLjKOhC84B/svfr+R9evf33u1vvXAn2+Xm4o9hXU8f7Bz7tRQRMLm7q2lXU/HbNdUwO2id+Sb99rlV+8HLNdY1OecJpsg9H0cS6FQ75AoC/wx9PCuTNNd/fprz8L+nyBUC9quQc/SXRSjdlOzCsOme2anZXtpLbnNnR9sRMG3GIRllRsa7SfiSfP/KHA2WvjJ3v33BrsQ1nv918bEBZgtglsv2quktvuOkZq+8VKzraY2uVLlU+TJ9nenlMBlLpci3326sD4bpimu+fT85D0vss9CUththNz/xa57aqub0hPps2prNpZw9UPVaikLow3/0qyvVeEEXYQ2uzglcle2X3mK7//D6f542CyFzDbiXkwrt2u6tpIejJtRkNVF6+at/2you1km/uR3x/iKvLe0I2r3dqiCS+G/xi4Gvg4SRnMdhLbbsn2Ws426fM47jeAavSBqKmqfEHxcEm4rfB5yx8Qr4T0nUvwSk3RvmRXwZjtxJRsqZKoeQF65aS2Z8XbNihXDsm295ZfugrS9xE6ezLZqzVJL3ky24mZvj/etnJFPI5XDVwtXiOUYVBu+JNt76e+gHgZpO+cul1mthMzbZztBi+h7Vcqa6pkGJQfi5dse2/5xDPjoRvXBjTabvL7bZntxMx9XhK1tuaFqi8qMWaVxfF0Q7xt5SFcsu39OnYdxD94rlur4mm3zHYS23G5DbZJL4K9JLO9FmxfSsn2hxeES16BC0Ff77lu7IflxGC2E1Mss/3CC1VVlX8itL3p5bVxtjelZHvgSz/fJw+G/CH/4NUPuomfssVsJ8b7vMw22GogfT7DkzvXIs3iF4x5jEm391PRth/NX7gRuPVtt+YEUYYz24mZt2GcbdIL3MfK166FoTqoRrbXGttTsz3P3xtEFzSFmSp+f+CTM91ETzSbwrYVde97/pm1AlU1a9c+0zCb0Pail3nbfBFrMaalJd1c7a2ADzrk/qA4b8XvC3z2+x4C38w2lm30A7Ft7VO87TrB9oZtKdnWarqv+gJBv3jLABp5+32+y59/PC7BE5fCbCdGF2+7qqGf0PaSnZxowXZdqra12u7PfCHh9CkS/lXQj/B9+XlP0Qmt9JiRxMsz2wS2S8lsF7XurAPTdbzttWmwrRn4su+rCzLhfJKf9wc/u4LTQ2e2cW3XVTXgPpBWtH0IKvE6IbWR7Yup2kYXuQZR4x0IyG4V4ZvwUx+hFjx5F53ZxrRdV/dMOeH79RaVIdt1km1DGmxruz/n7xrgFAsXSQLBC0HURT+n1GNjtglsE75pm66uZm1abfN/PnPZL/gWsvuCeLFk8KuPkt4Gxmzj2a7jbBO++ybYrkOy6wQ2vJOG3AblRee+9PnErjnqmMNHCIbhvUH/4JcfJluW2U5ia4Mk6pm1f657povwDm7Bdl16baNL2D2fh84i4ch1bygUEIdkF77yBb7uZiOwScOGb7sObNcR216bEdtoy7Xf/v4ajLX9QelMi9A97/X1vT/AZiFOFjNF23Xxtn+aK7a5+7g//iTkH/QFoIMWEm70BPkXgn2+qwkbb2Y7g7Zr4myX/Tp9tjXcWZTTX3+JfEsn10LcBOTevvcTVebMNp7tMtW2yzJhW9gB7cCZT0NnB6FGv9DbK4y9oSW/8XmCkRizncx2Waq2oYCysozZRhT1fPSl7yxXh6O5x9x088HBj5nt8RDY/kvZnzfmpm3Yi4Gvrw32+UMhf4jrrfUGQn3Xvp20KGY7k7ZRPV7GGy+rO5QZ21yFfuUPN/gb+Pn+WqDv60lfyWwnsfVmmcTGjRvLdhLe5MnZLovZNmTINuqwDbzv98tt35p0iiKznR3bZZm0zfHxVz7hPjGwffbypKMwZjujtstkZNi29kzQL10K9ftOs7v+4iGz3VpWo8r2oUO868za1nRrNeekx+4EgjfOTPYqZhvPdqsa22vrwDWyDZ+HylorM2UbvRsr/OsJSidRgzeuTPZCZjuZ7UMiyPahVGwfSoftJLf0oZsAi07FHqDGbE8IXuZtHzokKyJl2z3fJrv3S9N9OTY/sW/S27iZbQLbO9TlNlcAsq18tCTdXO21C7cGEvwJ5X23ONXcH/T7Jr3OzWwnsfUfh1oF/vLnb949VEVqu64OCjh0qBU+gNaGVGyDzev+82cvf9wtvGn6uNdCL+0DcT5LMMS9ketEmO1M2+ZBytXbRv9/4tuQ3xf0DX7yQfeks4hPaD+VBmChwS/ZeHt8DBVtt0qy1Nku40XzLEkpt9Hd+r3osXh9vk8+mGS+gkZ7XXzAFnowy+eTFsFs49luRbaJZyFyuZ0m29d9gRCn0zfou3plAOW3+PoTaHLD1wGfeKE76B+cdLjNbOPZbk3Bdms6bGt6Tvn46aXBYC/4vnzrSk/siYfdA2c+OTsYEp5SHgz0XZv8aYjMNrbtVnLbZa3psQ2p++kg94jiYJB/jpavb/Crz2798evrV65cuf7HTy/7bpw/JT66Oui7wK5v07O9ZAn3tVx9bp+43ucPBfzoYbbiWw9AdX1j0OdD94H5+tAzTn2hoPA8676rCR7cwGwns70kZdtLxCKWtC55OYWa/MNTN/hn4wXFB9BLd4zEPZYe1eNn/9DD7x+zTWK7YYkIsr2E3PahdNnWaHveH/Rd4B5BHpLeWEISLZtnfKHX709oidnGsr0kFdtL0NcUc1ur6b5+atDvvxBC84iDQelEinTvH/cmQqHeQN9XZxLe+8dsZ9q2sPySJdUp2Ubd8k9OcTcBSZW4aLtXvBoS8gf6LvckLoLZxre9NgXbS1KyLf7/6U/9aBwWQhOKg/L6W7y11++/leztHZntJLZeS9F2mVx2yrnN0QO+zwvPVpJyW7wD0B+4mvSmP2Y7qe1qSdU33/wsJ2yD73NfXoBhF6SxP9Zuo7lJgdDVMwrLMtt5ZvsE9Nc+/OizrwJ+v2zw5Q+c+uQ6NNj849MSVubMNpbtalW2/yLYrq7mbSvf/4274dqBD76+9em1wSA3HvN/+vGH4oXQpDDbyWzHEvObt755qk6FbU50NXytTqNtftv5J5ZD6+0LncZcktnGsl2t3jZPum1z8JNMA74Ael9enGWZ7aS2RVkp267OgG3NOe6kOeT2hxq8ByIy28lsx1xVp2y7elFN2m3zZ1j8odOYD7dltvPZtp97V15/8APMJZhtLNtPVb9VTW47Tnb6bWvP+fl3Igh9gLkgs53M9lM5bVvzET8T7WzwAw3rpSlGK9O23/2mepHkuvrYC5nK7SDLbWUUbf1G5gpslxE++RLZ5pbNpG00AmO2Mci47VawvWjRIvQlg7kdZLmNA4ZtCbW2Fy06togzDj8w2zQhs71Ihe1qyfaiTNkOsHYbD1Lbh0hto9RedOwY7zpjtlluY6Fs+5jc9iJi263VSPIxznjmbLNeGhaKtt4+JqLWNq/6GG/77bTb9nGzGghsn2G2cWwveusYue1vFglL81/eVh6vk23/uWuXL1/+8vLla6fxFuzuOUOku6cbq9j8QNn2ItH2k5cuHVv0F8L3FRln+1K6bWu7vx0YgH8D2Fa64cUD3QPdCgwIqHgX4NyFILdTs81z6W3luoF8F7RES6X2jK68Jtu269JvO7YvtIOZ8xDaPtaaw7Yx95h2yClCaPtJdbbRcXLsUm7Ynspk3DYMty9xtuHzErNNF0Vb/3pJZvuSOtuXeNuXMmWbHSGYYNgWUWlb0HyJ5TZ9CGxzvr55lTi35QUw21TJgu1jsgI2bWS2KUJm+1Kquc1sU0Up9EXjbatrtyWYbZpk2TbLbapk3PYiZjt3YLanEoq2N25KzfZbl5jtnIEwtzdVDzHb+QuzPZXIhu2Tl06ehEU3XYKPd5ltiijafnfTSYFNJ9XZFpZGXFrHbNOEyPZJtba3buVtb2K2qUJme5Mq21sRzHYOgGF7q8Cmrcx2npNx25cE2xwnt76rPF6nHZIChsj21pPrjpWmZHsds02TLNjeymznCoq2fya3vTVF21uZbaow21MJAtvr1NpeFyth3c+YbYoo2465WqfW9jqpAGabKkS216mxfZLZzhkybxstxy2KvrT/THkWI+2QFDAYtiW4druf2c5fiGzDp2rb65ht+mTX9jpmmyokttelwTbG3Qe0Q1LAENhuZ7bzHULb7ZdU2W5vZ7ZzAWXb7TLb7cx2XkNku12F7a1oKYmbbymP12mHpIBRth1nq/0ks53HMNtTCWZ7KqFo+y25K2Y7vyGw/VIabG9jtmmibPslme2bzHZek3HbMHK7yWznCBi2bwqotN2OFhM/L76lvDztkBQwyrZvtvOyOVsvbVVn+yaznQtg2BZBylTalopgtqlCYPumStuxpbe1X8Q480o7JAWMsu1tqdmG1EYlbOO+3GS2qYJhW4TLTlW2t93kFt/GbFNG0fa/bJPr3rZ1WI1tqQRmmyqktteR297GbOcKGLYv8qYuqrXNNfgXL3KfzDZVcGyLoPb3rypsI8vMdi5AaPuiOtsizDZdyGxvU2H7ZpxtjDOvtENSwJDYvohsf0ds+6IcZpsmWbZ9m9mmCbM9lSCw/TSzne9k3PbNce32MLNND0Xb/ydOFrOd1yjaPhmrhVOyfZtb/jazTRNS2+3EtoWFme0cIBu2kWlmOxdQtn1bbvu2Otu3me2cAMO2RKq2Ecw2TbJnmwdjNgTtkBQwmbZddFOUzX/fqrw87ZAUMIq2tsozE2zPJrR9kdnOHRRt/TVdtm8z29Qhs337dntTarYxzs7QDkkBw2xPJQhtv5Oi7T3MNk2Y7akEqe2bzHYeo2z7nRRtg+I9nGj0bw9Gn552SAoYDNt7BG7f/v77lG3/ldmmiLLtPWmwLRTAbFOGwPae77//fg+znc9kwfYeOazdpgmZ7T3ktm8z27kDqe2LzHYeQ2J7jxrbrCbPITJue1xuY7QEtENSwDDbU4nM2/6e2c4Zsmh7B7NNm6zahg9mmyZEtv/GbOc3irba5bZ3qLK9YwdXjYPrHcw2VTBs7xBQaXuPuDSzTR0S2ztSsb2D/85s00TR1k3JNpeft1Xb3sFsUyfjtr9ntnMHZnsqoWxbpgrE3Q4z2/kLke0dKds+wGzThMD2gQOp2UaLH/gvZpsiGbe9h9fMbOcC2bAt5fYBZpsuirb+60Cc7e9TyW1mmzLZsn2As32A2aYKhu0Yam1znnnbGGdeaYekgCG0fUCdbWFxZpsyRLYBFbYPMNu5QsZt72C2c4ds2j7AbFMm87bjl784wmzTQ9HW/5W72n3gbyps7xYXZrYpky3bu9E/+LjNbFMEw/ZuAeRstyrbu7kyFqOvzDZNlG3vlkC21NnezWznBCS2d6uzvXsxs50jKNq6LYlerMr2Ad72YvQPPphtmmDYXizC2darsI1Uo+Xh83tmmyLZsS0sj2wr1w20Q1LAkNhezGznOVmwvVgOs00TUts7mO08hsg2+Ca3vZvZzhmUbcfJWsxs5zOKtr6Pt32A2c5jmO2pRMZtx2QfRZ97lJenHZIChtQ2cbvNbOcQWcnto4Lto8w2XZRtH03Z9lEEZ/sos00VDNsSYEu9bX55ZpsqiqGX2UYcuENoezGznTtkwfZRZjtXyLZtjD497ZAUMBm3/ffFcctjXEOjHZIChtmeSpDa/nsKNTmzTRtmeypBZPtVNbalpYeOsl4aZRRD/zeZbECN7aGY7SFmmybKtl9Ni+0hZjsHyIrtIe6T+2C2aZId21xmD6EfMEZwtENSwCjbRo4EoJtGbPvoUakAZps2ZLZLh1TYHmK2cwVl20PxtiPMdv5CYPvu0FBqtoFSZpsmzPZUIou2S5lt2pDYLh3qH1qswnZpaSmznRMo2y5Nh20kHD5K+5ltmiiG/kCszQXuHlVtu5TZpg6G7VIZKmwPiQX0M9u0yartfmabLsq2S/sFSuFDjW0ogLeNSsI4F0c7JAUMge1+9bbFxZltuijb7pfb7me285mM2x5itnOHTNvWDg31y9qCfoxzcbRDUsAohv7vkqi7yBuznc+Q2L6rxjaMu/qZ7RyBwDbH0TmktkuZ7ZyB2PafyGxrxtnGOM9OOyQFDLHtUULbw8x27sBsTyWIbZeQ2u7vH2a2cwQS28NqbDdJi3Lfj7KzKxRRCn3RP2Sywdnd6cx2/kJgG1wN998dI7VdihZjtnMCItvgjdj2A6X9w3y9MMxs00bR9tEUbetL+cTmfTPbVFEKve7osLzhHh5qI7R9p5RPa9E2u8eTHoqhB9ty+u/OJbQ9B9UI3KLoYBk+yp5YTQ9y2171toeZbboQ2vaQ255+FxaLlTDEbNODzDbqpekIbY/F277bxGxTQzH03viafLif1Pa0u3HLM9sUwbDtidddRGi7DdmOldHvYbapoRj6Yrlt+NFDanvuXY/8eOkfVl4n7aAULMqy4nLbM9ykvEg83v7huNqhX/lwoR2UgkUx8m1xtr8bVm52x7EPjhHIbqmUIWabGoqRHzv6nSy1PcOEb7YOnXpoqpFtj9B6H1Xu5tEOSsFCZvs7zzDhI5VA3Qgs1oTym+cfzDY1FCP/p7seGU3D/4/UtmZk2PNd07Ck+x/zmG1aENr2DJNOS9NowmD7O49k+6iX2aaEsqvI3bjUHiaduoJsfweduyaxjCHlyyq0o1KoKLvS35U8NSHbpJe3NZo7w028bc54091pzDYllF2N9Htktr8bLia2XdLfBJ6HPU288X6MaYy0w1KgKMed18SDsnMfse22/qbvOM98Cf0YtxbRDkuBohj3ov6mmO2mpu+IT5xqNMXDTcOyIvoxxnC0w1KgKMZdNyS3DRlKLFvjvYdyWipleITZpgOGqiGZa7BNfCoNDpimONs4BwztuBQmynEvviurhME28ak04HcevsUWq3KMxqCIdmQKEeWwj8XZbvKQ3s+LCMfbxpn9wmxnAOWwj95riqvKyYfbGk10nG2v8iK0A1OA4HSvI8NxtodJ5xcjSsbV5I9hLMOSO93g2A574mryYdJZaYi548rAOdVOOzYFCEaKeeJNeUhnriDmjSsDp6dHOzSFB0bQdffiTakYgMEhg+rxkVghGANuVpWnHYyYF98DTSMjYrPrIXx8lsDIyIj8kLmH0xzQDk6hgeNpDHXSYrJUdck1Gr2HL4WjaaTfi7MQ7fAUGDghvyP3NNLkIb8ChpjukRUygnnM0A5PYYHlKTwiz8qwqi65RuP1oJQWCDd5olhL0Q5QQYETcB3XXMdsK9/nMbm3YXAsldI0glcM7QAVEHgXLtvkSQnGVHXJAc+IvN0Oe/CqCNoxKiCw4l0Sb1tlJw2afzhQZMcMbjm0Y1QoYM5JiEJS8prCXPfKq9J28XBY1tcL4w7kaEepQMCUrRvxhEEzfKJvI+F7KmVrdPdGYrmNqgvMU3K041Qg4AV7rgepFkCi1NrWeJpk5YTD2JUE7TgVBJixHvWg9lbypLrZhpJkhw349uDOSteyE6ipgjuRUAsV+UhYqMjBEtYZz8mZNxxzjXTrcQ842rHKf3AVeT0jkiD0dVi1bI2mX247rMfv79EOVt6DG+hRsRrnv3oI32Mijj95wrKqnKRRoB2tPAc3zEVcNS5rtrHzcRK8Hnluwyf+vHTa8cprsKPcNjIi5TX6QfX4i+MuV4ZeLG4EZ7oS050q+EGONIlq9Fxqkz6GPp5RWS2BSiO5Uk47ZnkLfoi9TXF6wvfI7wCTo7snL0w/QtQu0I5afkKip0RqabnUxrxwlRiPXiwKfdd7iG77px24fIQoF+Nr3lROrfC0obOwom3o/WFeCGO6VUIkZyyu5gXb5Dd3jvN1N3wnVpFDgYTP9KAdvfyCLLby1NbDh8r5h3JKPPq4tiFMemqOdgTzCMLIjsXUpD7YFg6ge4JmIcVJk5vpxoXYTLgJmdELqQ3fU5at0USborF+GtTmw+S9fNpxzAfIxUz36AXVfE/6njcNtnX39CP6WJWhV9U60I5lrqPGS5OYhHouw0eU3/oFh8jv7twJy7oD99RNWKYd0JylSI1rjeZP98S+lJ7TnYZWmzuI7t1BBfLcQeWr2zx22XtSVFrx3tOHOS+8G9CdFtmQ3CP6GOgUi/pBPO3Q5hyqI3lnRH+Hs8HbvqPyFpGJ6Dyx3Ob75uonSDDjEik5QaMvvTwJ1TxsZXJKPHdkxUajaRjGT2XtaQgdJOAdpFv0Em7yps22bkTecEf1UQ/pWwcy0gtUsUiF2KEKh8kfW5yYMegERMNRQB+Noh+bUqrLGSkyfSQqJxwhu3yhgBZUhyPhMGdcj8q/k476iKEOb1NYEs1l4e9SvfgVT3E4Gk+KsyQYKaCD7rgkQh/Vg/BUL36NI6KH3ObSmudOytdSGSrRRvV3YrZRGjaluxulC3MFS7r16Tp3wyBlFPXQYrIhs9PZReP5zzCSHZFyG3qErKdGgzYPCr6U22DkdxkQEYlG5TU5GoqlubVgYNAG/bI7spocpGRiOKxrikQiMduwwnCUdcyzjRdVsfG28Z6QQspYmJeNqnPkHRqMCNOdXTjZggVBR1qH2jL0YaGl4Jpv5DsD/QNGErzhWFsa0aOci4QzdVqzyAO+OdGRqFCne0ZZ2509YpnNZx3YyGC+eT1cJc5VIhHOecQzynrm2aI4HI5IpjkHIDyD62vjdEcjnGh+teEo050d2mSyucoVsi7dJ9HiGQ1H+DabW12E76V7acdhSjAWlgIuGtCHvZldZ1jPV+KojyCsNJqxjgJDoojPM0k393PGA68NR/kVCuvmVhtml0gyjC4aFttQPvhcdzzzlyp0ej2vWDAuwBrvTNIWjnXExRSPYD/0KBV04bDQHxcOMg5Wm2cOXUk4EoOvxeEjO+c6dGFxrZGYbRgQsPTODMXhqFy28DWcnrmByng9UXGlUdkhx9I7E+hi3TPJdjSLskG3Piqktvyogy3w0o5NwdHGDYIi45M7nM1zmKirFomzzbsPl7DqPJ14o+FovGs+5uGSrF6O0kXHHXKjwjEXHmO+04V3FLXYo+Or0Ej2R7y6qHimPK73AFuiZ77TArjWx3eNJNnZnxJYxJ+WnwhUPsx3yninh8MTQ0txsDsWjkwO1PKjXjbPQT26tshE18K1qEimz40noi2RbjQcG21jCa4KrXcsqo/KG8c433pqYfWKuqOj432PQoKXMOGkaL1to9FJmmowzYVYH6E4e6RIOM0zOnkLDps45mXGcdEVj8V3ysZHdZRC/yyOMT0nezQyOWh7R8eKdWw+U3J03rbpkQlJPT6q9Gfw66LRiALoFaNjbV7mfCJaHWT09NGJI63xpmHYnRPXlRP2zSemeWR0+lhbsVenU/lkmUKhqEgH2dw2VjIaUU4WMWW8tLeaRxdJWJNPvt3C3KrRkunTxxBtUwFuT8HvKD8XH9eyGLSx3KkYi8k2faL6KQJZbEal79HcmtmrnT6xpVHBaBrKyE2I90y2QDT3ri3qppMeutw+0baQ46BqP9KWi50c8A1HJPOXBNLooJe35U6DPd53mER4Jo6M0bhvk64m6Wrjl0/8Uoz1CP+pfidRhz2nLzDp+OvcLMPVwkeOP0ai0Zw/9awbw2q/xWN+dFTcP9KoCEz8dXR0steNe/34v48P+IQKgXQ9E8uNTLK5E68vSNEIR3O2DpejbYuGUXTQJo9GRmWV4qjwRYzW6MRKVjq2E0QjkaXE0Yv7/9jrFX4XfxxvF3M9E+zFHQGjQiBk8RHXEeH+jOZ8eWl7xIZrwEWfsc9ITLhSTpCS7vJUrAd35bIiJlYW3L9w7nbNEsBPqorID2HJfeal5DjjVcv/lK9T+7xoCM4ndUx33pDZrZWqbvn/RKL63O+YJUHXNqrn20B+j6T8ZsQTQV3wMW+eVeCTGffy3fS4naMdXfrIm+xodLStkGbycZfrZVnOGBV742NtugISLUML0rlr9xM6thSOASrHnWzXx9rapso0riKdt5i75ju9ZFwcCg7JNHc5Hyme6pM5uHedKCpCczoKC7RPRel5dwkGg8FgMBgMBoPBYDAYDAaDwWAwGCnz/wEpkIgJV4jiTwAAACV0RVh0ZGF0ZTpjcmVhdGUAMjAyMy0xMC0xMFQxODoyMDowNSswNjowMD8WwBYAAAAldEVYdGRhdGU6bW9kaWZ5ADIwMjMtMTAtMTBUMTg6MjA6MDUrMDY6MDBOS3iqAAAAAElFTkSuQmCC;" parent="1" vertex="1">
                    <mxGeometry x="80" y="160" width="60" height="57.32" as="geometry"/>
                </mxCell>
                <mxCell id="9" value="" style="shape=image;verticalLabelPosition=bottom;labelBackgroundColor=default;verticalAlign=top;aspect=fixed;imageAspect=0;image=data:image/png,iVBORw0KGgoAAAANSUhEUgAAAOEAAADhCAMAAAAJbSJIAAABelBMVEX///8auP9AtljjBWr7wAL///38/////v////z6///+/P/9/v8Zuf3kBGw/tlfjAGlEtVKQ2PL/6vyHxpr+vgA8rFXC6szNK3S+AFr44PbrwCb6wAD9+c7pwR7//vcPs/jU+fmz4sHw0V4arOJ+w43p//+r4ur/9/////L/9P/y//85ulX4//c+q1X//9///+vcCG0js/8VsvHw//PYAGL1xAD//eTPAFfmA2Wy6fmV2et5yuui5PLE+Pvv//Xh/emu4r1dyOYAuPJdueRUqGVAoVcwtdus3L1lunmd1KfU9t9eqm9kxud/yJQnqtx2s4CfzKhuzuix7/md1e0Kt+bM8Pi23uRNoVxDv+JeuHVlt3/G48yAwYQ1vUxmp3OEuZL8+sX1xufhfbDMU4qwPWzYmr715JHtxU7w22z38KrGPnjLZJPyyOHnxjK/RYL47ZTZAFX76a/lqsrgdqv2233SQ4K+AFLs0Engj7vJHWro017iwyLy34H+78wJzJI8AAATcElEQVR4nO2di18T17bHh8B+h4QCCcSEjULTDMMEERKIqGBRbEWvVaun9tRzC3IPFZW2Wiu1h/O/37X2JJiQSTI8BqOf+Rkekm2Yb9baaz/W2qNlRYoUKVKkSJEiRYoUKVKkSJEiRYoUKVKkSJEiRYoUKVKkSJEiRYrUFWLkY19BpOOLEGJxTvAr4fBBmWzVlIHO8tJOQ4QJV2ttu47jCMI1J8KRBUkPfBaJJHAzKZmShDOllJSCEqLER7zu4CKawPXmz19eunLlytLVa3mHM+EoRhtaARPXyyvrF65fT6+vuFyiLQlt8ZpdJiKIuPz15Nx4fG51dXXyxmVHOY5uvHoOb8LK9ac314qpWHHtztD6PJrU4h/rmo8mkr/29WRPPN5zCdTTE5+8ddUpyIaLZ4Qvf3MzlTCano6l1r5Nu0Ran0b0Jc7VR3M98dXVOAgAQZNX8ko1NHJXvgTrTU9PJxIxQEzEYmu35+kn4aXEcr6Y67mEJgThJzTm5NfnVTVkEmOn9Tux6UQxVqfptZ8dqtq9dDeIMKqdpbmeJsVX7+Y1hEpqcU2F1CsAl4g1KBEr/s9yQQlFre4dPhhThD6+5wMYj88tOTg6WoQD5fx3h/mAcCC29g2MHDCAdq8lmXRI/sa4H+Gl+K1rBCcBllBy/nbxMF8sNjAwkLq5jgOl1cW9UQlx1cdHDeHqXYdqmN4IRlbWEk0mRMJE8SkMjJJ18bgvWP5W3IfQQE6eBz9likpxOzXdTAg/gdiz7rLuJWQWdeW1yR5fRIinq0t5AcM6Yw7GUT/CRCJ131Wyi72UcLE0F29hxJ6eGw6nmlKeTg00d8Mq5LfLUnYvIA72d8dbE07mudBU8ettCNdWJOvmUZHmb/S0ITxPhbYYvx1rQQgqrkslunc8tFRnQqGsoUQbwrQFsehjc7QW6UAIK6sOhKk0eEL3EhLutCeUHQljadLNhBZzH1xqR8iAUHSyISFdTMj11bmWgEEIE91O6JLzj+KXPmtCKb5ubcTPgBCu33r8WRNy7bjOXb/FxedDKLh97d64tz3jbdF8XoQ42mnxcHKu59Ilb4cm/pnZEAmlFA9vrcbNXlQzIf3ECXFDn2qbX3tS20r83PqhpZgSwtUi//29R+M9PT2fnZdagmMqiRBG81efjM8ZVb/AN/fMzPuTIGyzfjt4ijr5x//4qkH/yCuLfBqEgSSEcBzHSyDigxNHgH0/C0JjR+JyI3EgSvknQcisei9t5a/wcykJFYKwD9IafkxptxMGFea1gVDXiVc39buckEKkDNQQkxRgR2ZyTeCeFgNgelzCs9ucEoIT5RKC29K0k6CN1oS4rpAFSqsVCcEJ4e2Abqskw6oHpaSSVAV+g48tjmO6c/7a1aUvAun7y3lBMOIw5lhHJBQUfMB151fSFy6YXD+WNsjwCM0Lw68U4vGVyTmztT0+Do82whaTjx5cdrAigzn0aITEtaRy07fv/LCWShXX7vycnke/Z6Hl+r0xgDuP706Ow3Rsrs32vSfz9KWe1dVHTx46kh/4XmAbcibWvyxinh+z4ali8cf0sgAjhkVoAEn+6qPx2qohHkSwkOqJ31vKC3pkQjZ/e62a6/cUWxtaESo0LyUYD50vJuM9WEQSmNBL508+AE89AqGJUstDxenp+mcHpovfLYuwxhL4vZTXcvTNK6MODntp/IGjcV5DSABCpiH6quVvmzLFiUTqnyvSkrBIC8GSXDHx8N7RyA4I4/HJqw5WuAWyIeMwRrj3Uz7PJ4pDLpGShkGohMw/8cnRBxK49aPzOGqQILM2pqTU6TUfwhj0xeswaigaQrwRnC6tHhOw59FqfPWKIFjFF2DmzYSU8//0bzAdW5vX0iKnP2ZQV+ZvHbH7HciEnEkc+2E2HoiQpItekDlsyOlE8YLL6KkTVnP0xyVcxdFx7iuHBiVkYsgvUezl+r+bhxlhCOM+EQ/aZLA72NB8vutorlX7flgEQoFD4VqrJrHY2roiIoRMuHLutskNBtGNPCe6Qyw1hIqp9WLCL9DU7BxKJtzk6E8CWM3jByIkPxWb61FqSn0Dce/0AS2Rv3diQovo9qNFzCMk5EJxulWTROw+CWU8pHmfkrwjEsqOu4mGEAbOC6nWhInbnPAQCE0VwjFH/HiVENayopUNE8EJ71POQ5idSufupdVjuinOZsfjNxzuFIQg9xPTfhMyGPoSA8UVSQUn1oWUXz9MmPExdeH0h0MU4V8cO5R6C4y7QgMhVn352MdUKyYGfkRCGBH9Cb2WxXUsQj19Qk4ePzo2YRzXXFdhzSApUctrvlePw3lsyJU48QHCVoCx2J2VUAgJl+LJ8WMpMN47zzRnjCsx5DsUoBWLaQeiUXvC4n1Xcn765X0YvdqVknQEnFsSDEKIBMK0rxFhUl380YWhgtN2hKm1FSK5GwYhtfOPqgvg4xBOnldKcQ42pPNPvRrhxIF74idcNlyHZ30Ja20SseJTVxZ4GP2QUO3i3BsLmoMj1jYyoBe6XvxzVYGv3xyIpVKxai30gImQxcS/BoZc06SZMDGdMFF0ejr1v/MhbUURDss7Z8n46RFGRQScW4WPL5zqJhm3pFpOF1MHpd7m6lNowm9XSCtCz4bT07Ef1sOqkQZCWJcK3IlqWfTkS4iHLeJzVxxZ8F4IF1BCXL8Zq99lSgwM/Ct1Z6W6y+TbDxPQBvw47YRWX4sXxrnz8NbcUbx0zuzJjX/vWLTadQgs85kUP92sOWmsaHYMU09XqGQtCbFJLHUzHWKVO0Mrci3OP7jXcTO4zobQAydvPHQ4EbXgQGCJKKVe+XKtWI014KfFm/dXBAwlpEZ46MgJOmjxh6EVB50gJEKlNcHzkMJ5/ACT82338+s0+eBh3kbzU8scTaMmjQG+upx+mkqljP+lbt5edwkjtRCpYNbWuH8BLdeG0i5YmetwD7iZ02Ui//irpWCpma+u5TH5i4nD+gvzjnfRlfTtoS+fDl1Pu1bDWVnu/vTzlw0auv/Tcv0/DVsa7ak8Y7QVcYRsfdCXSTCbq12Xc6shfmBS3HXrs6vQhoa3n98s14Erxwkkb/8gyjvs2+p1JEwCsFMybxv/QJRKPDn8oQYAfpu0rDM8pSClMgy4i01MnUWjan+nBIwNFmn1Oli+oJS321//c25SovWvCE3O9Hw/4eA2LqxmxaEHNQ/zvbEAwJu0sWX5HoDFnKdkwhGH0tgE47ao93bzLpyRDTEHS/EdpiSAAIDgGEAPE5qziAIsiJNVs9lfJ3BdQlXVdSmFZ7XmFi4cLf+36jT5LOggiip5qNdTobl00NngD7oePExtCZpSSQUf9S+Cji2ZVhg98JC6bxXAwXfgEC6HjmFrPAwd2njoCbq840glBzOHJLWQoprHxjbgf4PQaBDdEKNE/Zk7YnGbMFgo6YszuY2NXAAtXLTNeIkZmZAJmRKFzWdbI6ON+r8p4lajORF4KATbvB99P/Ly35mCNJUK9fGGSW7bF3Pbb385d+7cWADt7j3fWYCJoxI05IBDROHNi8VSKZns7U3WaWTQ+pDHdrw2vcne2dlK5d3LVxLCaeOYoajOPR8rZ7N9wx3Uh4Iv5bHd5zMaum7IXqoyW79Xevv7k8n+eiVHpuTBiSyR2VoszeJP8alKpTT6V0YeCjV8Yftctq9s1BHSI81myxNox5AJN0dKyVlQb6MMIWZLMNptjiwCm9cmCa37+xd/fVU/24JIM/O2nPUsBGZsq6xRGc3dV97dsSGihgUHEwu2OVqCy+7vPSzwUqIYx8ipNrFJrQ16M6g0kil4WyswgECMWfjFu/zh9nQNnObL2G82dSFskRBWUTBA0FcjJR+8KqGQnEriZEZKjU/Bo5IsbQ16mxhcF7Rrvw3OVi/ojf/ZwbvdcB7G6C+twlbp4KpbEDL5ctF7E+raJCu9yd//qlY6aeW6r8c6uGYrSw4Pl/dmLEXsEHb1mXTEm9/97PeBkECbTeiDTc/2zvZXRjOWmXYRW8zsIuAxIMvQc8vPbUl0GHkL5RRGKrO+PnpACG1elPzaQNgpvTTRFEZ6vl2FOzJjFkPq2IZmoeSelNr8vbc9IXjp5uJsU5ukCaild4NmQsIPwszRBf0wO9y3fVGGkpqh8o9Sf79PHzQQfxpCQZ+V+g+PJMZN+5O9pTew1oDhTGxky8frhlX9siCYPn1AS01tlZK97QmV3PIlNCo9s5BQudvZ8kkA+87lhBXGSkoNvk8mffE+ELLBEf/RBFXZKsA6ikr99oSEYxswBQ6BkGRG0ddaEoIBOcuMtnwTsK8qmHEp+3nfyQjLr6mWYZR9Zd4BYYvrr9rQwnehJeH7QZxxEfvt8MkIsztKyxBmpxSuvlUXA8Ip8D9OOhE6xNJAeIJAA4uR7Gtlh0FIMiPJWR8T9sNKY7a0ZcEqULcn9EYUrvezHafbLYSjBRBuCM3E6ScQ6dRW0s9Lzeqp9EzgPfTAS5tnNI2EWrOd8rEJcQI+DLFUn/rMG1btovCs5Hf5OEZWFmGsA/MEIOS2zB1zVuqtpPr6JhaA8LRjKd7BSm6+q/gRzvZWkqODQuDuQmdCoom9Vz7WyqIPZwrAuG1LN4y9faXkC7j8JjednU1WFp/B+hc3ogIQMsG3j0mIE9ls+VwOV5ghEEoh3iyaK/3QGfE7JBx9RaUAyACETLqwtui8tPflw9VT+fnFAtFhEDLGCy9LSFWp1GZvuFkBs+rFv2r3dgpkQ6F/GzMh4wiWxG0a3MoYzu7lSEj5J8q4fDVSqfTWFg9oy37csqlsTdVCdwBCAiuQhX3cpDnKBDxr9tsAcOw1rptCIiRqanO0lKz0e4hJMCV8M1saGRRucEIGhHJhIntUQm/DbWyHFcKg84Q12q9elCr9NQjw10plcSvjuLX3NAChZJiqmnk+lj1KuMmin5az53ZsO7zNRIXZCZl5+a5Ui6hJsxc6hek9FpjQYtx2hZj5bfcoiEhYHtvLMR0eIZ5TYcSlhc2txZLZ54aB/t0fm1K4RKrAhFwzLAaQxM69PeftEWZNZM32tX54+mV7hkkedpZbYMo289fWn+/fv//z5b8zEucWH9LYAWzobT/A9IDome3nmLcIot29/Z2FMBb2TaLUYlKqwiBoCrO3jbOnAOPhBxMoi9sLQRJPudwM5p7kmZyARkLGsLaAg28qxhvLEI5EiGepuOaWaCtMAbuuu+xikvTMZPLYQil6uEbwSIQmQyylbJ9FVibbak4/npXQjGA9rDBQTDaOToEJzWeiuXcIWrZ5mMIHfCOwxOVsCIWoVtKYQpLGdVqQ0cLykvjmKzPVNiZTj5lxqrz8eMPDiHN4nPH9zKsX2bjUDjJr06RAXHQ/44EoCtZhYCDutlzXds2tzDsTWtq9iEVONv6xtfcZOhm3OThtN97Xs/GaOhNKfvG3vyf+nqjT3/v/BU6O5W/df8+PIOtD/TcsERoS2Nnyf/ZzNhYJdfMNdj0FmbXpCVgnZOuEiOWx/ZyGwe9jA3RUgL02Wz/PDtevm8zkFBbvExuhJHZPWQFiKdUTw35bGMPZc2BFnCtZ4d4Y4mQKQKiQ0Gd9BKsjWByZurEuBjw6Yd13JoFtXiXkipkT6fg2zJYh4Ixt2wQPzXyWhGBD3AudgSV82FVPJ9KxCLO1fggR9rXNgbCLB41OhEryVjb0UCdsKnm3/t8IqE6EVmsv9Rh3FygL4Wzh6akTIe1A2DeWg9XnJ0zILdaBMIs5+m4eEFsQmhxHEC/ty+6IUHL0p6YONmSUEcr9Z21VvRah5OhPS8rk+htSjEnPfsnZ2d4/JZ7GF/bz4daI5dfSDfuueieRmNo6XJFiADEd11/5gyIh0dvZloTZsZxyu9aCcGGOfFaq+Pgn/ixZeiOkUESz//rnnMwG/96M4ofPcnSNYLrl+Of6kbCSHM04WAqumb3bsmIou3+RhlE6emoSmOufbcr1J/tnk5XSS4n/oxrVRO+3Ihzu2+BUsy6ONCbX31+LL7VQkzT1GqObFp4EgpWDmxsb7muqnzV/3VtQQHgmGZjjSSrM9Scx1V/xGGcNIeb6n1Vz/Vpze7887BXD1gFijn53g5uzCh8Zo41gTslejUDo/JDrx2INLNf4dbC6CUOI4LkJk7VusCLwlvftj3v9nQWEpDHXj4TwqLzPqAPfo8LO7WYPE+ISf6HpEF+3CW/8KKzNF+Cj/XX9MFl6kTlY9HGNp95ze+W+xkJaLJQhIoyy0dOUgq4G0T7z8l2yWi6N/XB29I8MLPqq5y3MgVDFc2/HGofF3f0F66ySS8cXw1w/F2oKz66ZXH9/pfLu1zcFpYmsHhPlTFIO44qNR7tqxxKyfXsbNoyW3Y9oBI7KCq+ebb0fHR0d2frrld8IDm3smdcTu2jI7Nje/sYCZ81HabtWJtdfKOA500GJmeqmFmY7TdsXZzZ2dnZe52bCOOUTrhjDm+0wy7uZavPVIyHeTIi73EuN0m7em2kWzpwpNWW33n8d0NzEW8YzRrRtuy7hZ5bBPhVRczdQhRlsJQRVflUi3g0JtDmQj5bu2vWEr7wsIMfUu3fTCJ+dJYnPCwprDXRYZnl3LPmU7OiJNHxp16ibN58iRYoUKVKkSJEiRYoUKVKkSJEiRYoUKVKkSJEiRYoUKVKkSJEiVfX/AteydSiAoy0AAAAASUVORK5CYII=;" parent="1" vertex="1">
                    <mxGeometry x="80" y="320" width="60" height="60" as="geometry"/>
                </mxCell>
                <mxCell id="20" value="" style="edgeStyle=orthogonalEdgeStyle;html=1;endArrow=block;elbow=vertical;startArrow=none;endFill=1;strokeColor=#545B64;rounded=0;strokeWidth=1;fontSize=8;startSize=5;endSize=5;opacity=50;jumpSize=4;entryX=0;entryY=0.25;entryDx=0;entryDy=0;entryPerimeter=0;" parent="1" target="4" edge="1">
                    <mxGeometry width="100" relative="1" as="geometry">
                        <mxPoint x="140" y="188.16" as="sourcePoint"/>
                        <mxPoint x="240" y="188.16" as="targetPoint"/>
                        <Array as="points">
                            <mxPoint x="200" y="188"/>
                            <mxPoint x="200" y="245"/>
                        </Array>
                    </mxGeometry>
                </mxCell>
                <mxCell id="25" value="" style="edgeStyle=orthogonalEdgeStyle;html=1;endArrow=block;elbow=vertical;startArrow=none;endFill=1;strokeColor=#545B64;rounded=0;strokeWidth=1;fontSize=8;startSize=5;endSize=5;opacity=50;jumpSize=4;entryX=0;entryY=0.5;entryDx=0;entryDy=0;" parent="1" target="7" edge="1">
                    <mxGeometry width="100" relative="1" as="geometry">
                        <mxPoint x="40" y="250" as="sourcePoint"/>
                        <mxPoint x="140" y="240" as="targetPoint"/>
                        <Array as="points">
                            <mxPoint x="40" y="189"/>
                        </Array>
                    </mxGeometry>
                </mxCell>
                <mxCell id="27" value="" style="edgeStyle=orthogonalEdgeStyle;html=1;endArrow=none;elbow=vertical;startArrow=block;startFill=1;strokeColor=#545B64;rounded=0;strokeWidth=1;fontSize=8;startSize=5;endSize=5;opacity=50;jumpSize=4;exitX=0.5;exitY=1;exitDx=0;exitDy=0;exitPerimeter=0;" parent="1" edge="1">
                    <mxGeometry width="100" relative="1" as="geometry">
                        <mxPoint x="40" y="289.20000000000005" as="sourcePoint"/>
                        <mxPoint x="80" y="349.5" as="targetPoint"/>
                        <Array as="points">
                            <mxPoint x="40" y="350"/>
                        </Array>
                    </mxGeometry>
                </mxCell>
                <mxCell id="30" value="Text" style="text;html=1;align=center;verticalAlign=middle;resizable=0;points=[];autosize=1;strokeColor=none;fillColor=none;fontSize=1;" parent="1" vertex="1">
                    <mxGeometry x="115" y="435" width="30" height="10" as="geometry"/>
                </mxCell>
                <mxCell id="40" value="sam remote invoke&amp;nbsp;" style="text;html=1;align=center;verticalAlign=middle;resizable=0;points=[];autosize=1;strokeColor=none;fillColor=none;" parent="1" vertex="1">
                    <mxGeometry x="50" y="130" width="130" height="30" as="geometry"/>
                </mxCell>
                <mxCell id="41" value="" style="points=[[0.35,0,0],[0.98,0.51,0],[1,0.71,0],[0.67,1,0],[0,0.795,0],[0,0.65,0]];verticalLabelPosition=bottom;sketch=0;html=1;verticalAlign=top;aspect=fixed;align=center;pointerEvents=1;shape=mxgraph.cisco19.user;fillColor=#005073;strokeColor=none;" parent="1" vertex="1">
                    <mxGeometry x="30" y="250" width="40" height="40" as="geometry"/>
                </mxCell>
            </root>
        </mxGraphModel>
    </diagram>
</mxfile>
